<svg width="24" height="24" viewBox="0 0 24 24" fill="currentColor" xmlns="http://www.w3.org/2000/svg"><path fill-rule="evenodd" clip-rule="evenodd" d="M13 3.00019H10.4C9.26339 3.00019 8.47108 3.00097 7.85424 3.05137C7.24907 3.10081 6.90138 3.19299 6.63803 3.32717C6.07354 3.61479 5.6146 4.07373 5.32698 4.63822C5.19279 4.90158 5.10062 5.24926 5.05118 5.85443C5.00078 6.47127 5 7.26359 5 8.40019V15.6002C5 16.7368 5.00078 17.5291 5.05118 18.146C5.10062 18.7511 5.19279 19.0988 5.32698 19.3622C5.6146 19.9266 6.07354 20.3856 6.63803 20.6732C6.90138 20.8074 7.24907 20.8996 7.85424 20.949C8.47108 20.9994 9.26339 21.0002 10.4 21.0002H13.6C14.7366 21.0002 15.5289 20.9994 16.1458 20.949C16.7509 20.8996 17.0986 20.8074 17.362 20.6732C17.9265 20.3856 18.3854 19.9266 18.673 19.3622C18.8072 19.0988 18.8994 18.7511 18.9488 18.146C18.9992 17.5291 19 16.7368 19 15.6002V9.00019H15.6L15.5681 9.00019H15.5681C15.3157 9.00022 15.0699 9.00025 14.8618 8.98325C14.6332 8.96457 14.3634 8.9205 14.092 8.7822C13.7157 8.59046 13.4097 8.2845 13.218 7.90817C13.0797 7.63675 13.0356 7.36701 13.0169 7.13842C12.9999 6.93027 13 6.68449 13 6.43212V6.43209L13 6.40019V3.00019ZM17.5858 7.00019L15 4.4144V6.40019C15 6.69672 15.0008 6.85897 15.0103 6.97556L15.0114 6.98874L15.0246 6.98989C15.1412 6.99941 15.3035 7.00019 15.6 7.00019H17.5858ZM14.0527 1.05545C13.8173 0.998953 13.5782 0.999592 13.3883 1.0001L13.3373 1.00019H10.4H10.3572H10.3572C9.27341 1.00018 8.39925 1.00017 7.69138 1.05801C6.96253 1.11756 6.32234 1.24337 5.73005 1.54516C4.78924 2.02453 4.02434 2.78943 3.54497 3.73024C3.24318 4.32253 3.11737 4.96272 3.05782 5.69157C2.99998 6.39944 2.99999 7.2736 3 8.35738V8.35738V8.40019V15.6002V15.643C2.99999 16.7268 2.99998 17.6009 3.05782 18.3088C3.11737 19.0377 3.24318 19.6779 3.54497 20.2701C4.02434 21.211 4.78924 21.9759 5.73005 22.4552C6.32234 22.757 6.96253 22.8828 7.69138 22.9424C8.39923 23.0002 9.27334 23.0002 10.3571 23.0002H10.3572H10.4H13.6H13.6428H13.6429C14.7267 23.0002 15.6008 23.0002 16.3086 22.9424C17.0375 22.8828 17.6777 22.757 18.27 22.4552C19.2108 21.9759 19.9757 21.211 20.455 20.2701C20.7568 19.6779 20.8826 19.0377 20.9422 18.3088C21 17.601 21 16.7269 21 15.6431V15.643V15.6002V8.66293L21.0001 8.6119C21.0006 8.42199 21.0012 8.18285 20.9447 7.94751C20.8957 7.74344 20.8149 7.54835 20.7053 7.36941C20.5788 7.16306 20.4093 6.99441 20.2746 6.86049L20.2746 6.86047L20.2385 6.82446L15.1757 1.76171L15.1397 1.72555C15.0058 1.59091 14.8371 1.42136 14.6308 1.29491C14.4518 1.18525 14.2568 1.10444 14.0527 1.05545Z" fill="currentColor"></path></svg>