<?xml version="1.0" encoding="UTF-8" standalone="no"?>
<!DOCTYPE svg PUBLIC "-//W3C//DTD SVG 1.1//EN" "http://www.w3.org/Graphics/SVG/1.1/DTD/svg11.dtd">
<svg version="1.1" xmlns="http://www.w3.org/2000/svg" xmlns:xlink="http://www.w3.org/1999/xlink" preserveAspectRatio="xMidYMid meet" viewBox="0 0 120 60" width="120" height="60"><defs><path d="M11.6 41.65C5.17 40.04 1.25 33.53 2.86 27.1C4.46 20.66 10.97 16.75 17.4 18.35C23.84 19.96 27.75 26.47 26.15 32.9C24.54 39.34 18.03 43.25 11.6 41.65Z" id="an1ZIOSu"></path><path d="M17.16 25.26C17.19 25.12 17.37 24.39 17.69 23.1L16.38 22.77C16.06 24.03 15.89 24.73 15.85 24.87C15.5 24.79 15.15 24.71 14.8 24.63C14.83 24.48 15.01 23.78 15.33 22.51L14.01 22.18C13.69 23.47 13.51 24.2 13.47 24.34C13.18 24.28 12.9 24.21 12.63 24.14C12.63 24.14 12.63 24.14 12.63 24.14L10.81 23.68C10.6 24.53 10.49 25 10.46 25.09C10.46 25.09 11.44 25.31 11.42 25.33C11.95 25.46 12.05 25.81 12.03 26.09C11.97 26.34 11.48 28.31 11.42 28.56C11.46 28.57 11.5 28.58 11.56 28.6C11.55 28.6 11.5 28.59 11.42 28.57C10.9 30.64 10.61 31.79 10.55 32.02C10.49 32.18 10.32 32.43 9.95 32.34C9.96 32.35 8.99 32.1 8.99 32.1C8.95 32.2 8.73 32.7 8.34 33.6C9.37 33.86 9.94 34 10.05 34.03C10.37 34.11 10.69 34.2 10.99 34.27C10.96 34.42 10.77 35.15 10.45 36.46L11.76 36.79C12.09 35.49 12.27 34.77 12.3 34.63C12.66 34.72 13.01 34.81 13.35 34.9C13.32 35.04 13.14 35.76 12.82 37.05L14.13 37.38C14.46 36.07 14.64 35.34 14.68 35.2C16.92 35.62 18.61 35.45 19.32 33.42C19.9 31.78 19.3 30.84 18.11 30.22C18.97 30.03 19.62 29.46 19.8 28.29C20.04 26.69 18.82 25.83 17.16 25.26ZM12.73 33.04C12.8 32.75 13.38 30.43 13.45 30.14C14.35 30.36 17.21 30.8 16.79 32.51C16.38 34.15 13.62 33.26 12.73 33.04ZM13.79 28.81C13.85 28.55 14.38 26.45 14.44 26.18C15.18 26.37 17.58 26.71 17.19 28.27C16.82 29.75 14.53 29 13.79 28.81Z" id="b3IcsWIDeA"></path><path d="M40.2 25.77C40.92 26.12 41.5 26.59 41.97 27.17C42.44 27.76 42.78 28.45 43 29.24C43.22 30.03 43.34 30.88 43.34 31.79C43.34 33.19 43.08 34.51 42.56 35.76C42.04 37.01 41.34 38.09 40.45 39.01C39.56 39.93 38.5 40.66 37.29 41.2C36.08 41.73 34.76 42 33.34 42C33.16 42 32.84 42 32.38 41.99C31.93 41.98 31.4 41.93 30.82 41.85C30.19 41.76 29.56 41.64 28.95 41.49C28.3 41.33 27.68 41.11 27.08 40.82C27.43 39.34 29.18 31.98 32.34 18.73L37.04 18C35.92 22.7 35.29 25.31 35.16 25.84C35.55 25.66 35.96 25.52 36.38 25.41C36.8 25.31 37.24 25.26 37.68 25.26C38.66 25.26 39.5 25.43 40.2 25.77ZM35.74 37.75C36.37 37.4 36.92 36.93 37.37 36.37C37.83 35.78 38.19 35.11 38.44 34.41C38.71 33.67 38.84 32.9 38.84 32.13C38.84 31.15 38.68 30.4 38.35 29.85C38.03 29.3 37.43 29.03 36.56 29.03C36.27 29.03 35.91 29.08 35.45 29.18C35 29.28 34.59 29.49 34.22 29.82C34.02 30.65 32.42 37.31 32.21 38.14C32.34 38.16 32.44 38.18 32.53 38.2C32.62 38.22 32.72 38.24 32.82 38.25C32.92 38.26 33.04 38.27 33.19 38.27C33.22 38.27 33.4 38.27 33.73 38.27C34.65 38.15 35.32 37.98 35.74 37.75ZM43.72 41.58L47.52 25.6L52.05 25.6L48.22 41.58L43.72 41.58ZM48.71 23.09C48.2 22.72 47.94 22.14 47.94 21.37C47.94 20.95 48.03 20.55 48.2 20.17C48.37 19.81 48.6 19.48 48.89 19.2C49.17 18.92 49.51 18.7 49.87 18.54C50.25 18.38 50.66 18.3 51.08 18.3C51.7 18.3 52.27 18.49 52.78 18.86C53.28 19.24 53.54 19.81 53.54 20.58C53.54 21 53.45 21.41 53.28 21.78C53.11 22.15 52.88 22.48 52.59 22.75C52.31 23.03 51.97 23.25 51.61 23.41C51.23 23.57 50.83 23.65 50.41 23.65C49.79 23.65 49.2 23.46 48.71 23.09ZM60.7 20.88L59.54 25.6L64.59 25.6L63.68 29.3L58.66 29.3C57.86 32.66 57.42 34.52 57.33 34.89C57.2 35.36 57.13 35.79 57.12 36.2C57.09 36.61 57.14 36.95 57.27 37.25C57.39 37.54 57.6 37.77 57.92 37.93C58.23 38.09 58.68 38.18 59.27 38.18C59.76 38.18 60.23 38.13 60.69 38.04C61.15 37.94 61.62 37.82 62.07 37.66C62.1 38 62.37 40.78 62.4 41.12C61.76 41.36 61.1 41.55 60.43 41.7C59.72 41.86 58.88 41.94 57.9 41.94C56.51 41.94 55.42 41.73 54.65 41.32C53.88 40.91 53.34 40.34 53.01 39.62C52.69 38.9 52.55 38.07 52.59 37.14C52.63 36.21 52.77 35.23 53.01 34.19C53.21 33.36 54.2 29.16 55.99 21.61L60.7 20.88ZM65.06 31.31C65.5 30.09 66.14 29.03 66.98 28.11C67.8 27.21 68.81 26.49 70 25.96C71.18 25.43 72.51 25.17 73.96 25.17C74.88 25.17 75.69 25.25 76.41 25.43C77.13 25.6 77.78 25.83 78.37 26.11C78.22 26.46 76.98 29.28 76.82 29.64C76.41 29.47 75.99 29.32 75.56 29.2C75.12 29.06 74.59 29 73.96 29C72.46 29 71.28 29.52 70.39 30.55C69.51 31.58 69.07 32.97 69.07 34.71C69.07 35.74 69.29 36.58 69.74 37.22C70.19 37.86 71.01 38.18 72.2 38.18C72.79 38.18 73.36 38.11 73.9 37.99C74.45 37.87 74.94 37.72 75.36 37.54C75.4 37.9 75.67 40.79 75.7 41.15C75.08 41.39 74.45 41.59 73.81 41.75C73.12 41.92 72.3 42 71.35 42C70.1 42 69.03 41.82 68.16 41.46C67.29 41.09 66.57 40.6 66 39.98C65.44 39.36 65.03 38.64 64.77 37.81C64.52 36.98 64.39 36.11 64.39 35.2C64.39 33.82 64.61 32.52 65.06 31.31ZM81.57 41.52C80.79 41.19 80.13 40.74 79.62 40.15C79.1 39.56 78.71 38.87 78.45 38.07C78.18 37.27 78.05 36.38 78.05 35.41C78.05 34.19 78.25 32.98 78.64 31.76C79.04 30.55 79.62 29.45 80.39 28.48C81.16 27.51 82.1 26.71 83.22 26.09C84.33 25.48 85.61 25.17 87.04 25.17C88.1 25.17 89.02 25.33 89.83 25.65C90.63 25.98 91.28 26.44 91.8 27.02C92.32 27.61 92.71 28.3 92.97 29.1C93.23 29.9 93.36 30.79 93.36 31.76C93.36 32.98 93.17 34.19 92.79 35.41C92.41 36.62 91.84 37.72 91.09 38.69C90.34 39.66 89.4 40.46 88.28 41.08C87.15 41.69 85.85 42 84.37 42C83.3 42 82.37 41.84 81.57 41.52ZM84.86 29.57C84.35 29.96 83.93 30.45 83.58 31.03C83.24 31.62 82.98 32.26 82.81 32.96C82.63 33.66 82.55 34.33 82.55 34.95C82.55 35.97 82.71 36.76 83.04 37.33C83.36 37.89 83.95 38.18 84.8 38.18C85.47 38.18 86.05 37.98 86.56 37.6C87.06 37.21 87.49 36.73 87.84 36.14C88.18 35.55 88.44 34.91 88.61 34.21C88.78 33.51 88.87 32.85 88.87 32.22C88.87 31.21 88.71 30.42 88.38 29.85C88.06 29.28 87.47 29 86.62 29C85.95 29 85.36 29.19 84.86 29.57ZM93.76 41.58L97.56 25.6L102.09 25.6L98.27 41.58L93.76 41.58ZM98.75 23.09C98.24 22.72 97.99 22.14 97.99 21.37C97.99 20.95 98.08 20.55 98.25 20.17C98.41 19.81 98.65 19.48 98.93 19.2C99.22 18.92 99.56 18.7 99.92 18.54C100.3 18.38 100.71 18.3 101.12 18.3C101.75 18.3 102.32 18.49 102.82 18.86C103.33 19.24 103.58 19.81 103.58 20.58C103.58 21.01 103.49 21.41 103.32 21.78C103.15 22.16 102.92 22.48 102.64 22.75C102.35 23.03 102.02 23.25 101.65 23.41C101.28 23.57 100.88 23.65 100.45 23.65C99.84 23.65 99.24 23.46 98.75 23.09ZM106.47 25.97C106.93 25.83 107.4 25.71 107.87 25.61C108.39 25.5 108.97 25.41 109.6 25.34C110.24 25.26 110.97 25.23 111.77 25.23C114.15 25.23 115.78 25.92 116.68 27.3C117.59 28.67 117.74 30.56 117.16 32.95C117.02 33.52 116.33 36.4 115.09 41.58L110.56 41.58C111.76 36.51 112.43 33.69 112.57 33.13C112.69 32.6 112.78 32.09 112.86 31.59C112.93 31.1 112.92 30.66 112.84 30.29C112.77 29.93 112.57 29.6 112.28 29.38C111.98 29.14 111.53 29.03 110.93 29.03C110.32 29.03 109.72 29.09 109.13 29.21C108.94 30.04 107.95 34.16 106.19 41.58L101.66 41.58L105.34 26.32C105.82 26.18 106.2 26.06 106.47 25.97Z" id="bam9ozxU7"></path></defs><g><g><g><use xlink:href="#an1ZIOSu" opacity="1" fill="#f7931a" fill-opacity="1"></use><g><use xlink:href="#an1ZIOSu" opacity="1" fill-opacity="0" stroke="#000000" stroke-width="1" stroke-opacity="0"></use></g></g><g><use xlink:href="#b3IcsWIDeA" opacity="1" fill="#ffffff" fill-opacity="1"></use><g><use xlink:href="#b3IcsWIDeA" opacity="1" fill-opacity="0" stroke="#000000" stroke-width="1" stroke-opacity="0"></use></g></g><g><use xlink:href="#bam9ozxU7" opacity="1" fill="#4d4d4d" fill-opacity="1"></use><g><use xlink:href="#bam9ozxU7" opacity="1" fill-opacity="0" stroke="#000000" stroke-width="1" stroke-opacity="0"></use></g></g></g></g></svg>