<?xml version="1.0" encoding="UTF-8"?>
<!-- Generated by Pixelmator Pro 3.2.3 -->
<svg width="130" height="50" viewBox="0 0 130 50" xmlns="http://www.w3.org/2000/svg" xmlns:xlink="http://www.w3.org/1999/xlink">
    <g id="eppUOmNgP2gRY2Fg7fJU">
        <path id="path1" fill="#26a17b" stroke="none" d="M 5.358 25 C 5.358 16.068451 12.598452 8.827999 21.530001 8.827999 C 30.461548 8.827999 37.702 16.068451 37.702 25 C 37.702 33.931549 30.461548 41.172001 21.530001 41.172001 C 12.598452 41.172001 5.358 33.931549 5.358 25 Z"/>
    </g>
    <g id="FOA762bLirgwLIP2iJyre">
        <path id="path2" fill="#ffffff" stroke="none" d="M 23.252899 26.49678 L 23.252899 26.494181 C 23.1411 26.50198 22.5639 26.53578 21.279501 26.53578 C 20.252501 26.53578 19.532301 26.507179 19.2775 26.494181 L 19.2775 26.49678 C 15.328099 26.322578 12.3823 25.636179 12.3823 24.811979 C 12.3823 23.990379 15.3307 23.30138 19.2775 23.127178 L 19.2775 25.812979 C 19.534901 25.831179 20.2759 25.87538 21.297701 25.87538 C 22.5249 25.87538 23.1385 25.82338 23.252899 25.812979 L 23.252899 23.12978 C 27.1945 23.30658 30.1325 23.992979 30.1325 24.814581 C 30.1325 25.636179 27.1919 26.322578 23.252899 26.49938 M 23.252899 22.85158 L 23.252899 20.449181 L 28.7519 20.449181 L 28.7519 16.785782 L 13.7811 16.785782 L 13.7811 20.449181 L 19.2801 20.449181 L 19.2801 22.85158 C 14.8107 23.05698 11.4515 23.940981 11.4515 25.001781 C 11.4515 26.06258 14.8133 26.946579 19.2801 27.154581 L 19.2801 34.855782 L 23.255501 34.855782 L 23.255501 27.154581 C 27.717098 26.949181 31.0711 26.06518 31.0711 25.004379 C 31.0711 23.94618 27.717098 23.05958 23.255501 22.854179"/>
    </g>
    <g id="VzlqMGNWI0TYyCgonRU29">
        <path id="path3" fill="#5b5a5d" stroke="none" d="M 50.7882 13.78878 L 50.7882 17.67318 L 54.5634 17.67318 L 54.5634 20.58778 L 50.762203 20.58778 L 50.762203 26.49758 C 50.762203 27.80278 51.482399 28.439781 52.537998 28.439781 C 53.065804 28.439781 53.6768 28.27338 54.175999 28.023781 L 55.119801 30.909781 C 54.150002 31.29718 53.343998 31.463579 52.317001 31.49218 C 49.347801 31.603979 47.405602 29.911379 47.405602 26.49758 L 47.405602 20.58778 L 44.852398 20.58778 L 44.852398 17.67318 L 47.405602 17.67318 L 47.405602 14.150177 Z M 115.874001 17.49118 L 116.123596 19.071981 C 117.179199 17.379379 118.593597 17.12978 119.981995 17.12978 C 121.3964 17.12978 122.756203 17.683578 123.505005 18.432379 L 121.978806 21.37298 C 121.284599 20.790581 120.647606 20.48378 119.537399 20.48378 C 117.761604 20.48378 116.123596 21.42758 116.123596 23.952179 L 116.123596 31.167179 L 112.738403 31.167179 L 112.738403 17.485981 Z M 107.5774 22.73538 C 107.3564 20.959579 105.967995 20.070379 104.025795 20.070379 C 102.195404 20.070379 100.695198 20.959579 100.195999 22.73538 Z M 100.141396 25.538179 C 100.362396 27.23078 101.834 28.45278 104.220795 28.45278 C 105.468803 28.45278 107.106796 27.97958 107.884193 27.17618 L 110.047401 29.313381 C 108.604401 30.810978 106.246201 31.533781 104.163597 31.533781 C 99.447205 31.533781 96.6418 28.619179 96.6418 24.23558 C 96.6418 20.072981 99.473206 17.07518 103.914001 17.07518 C 108.492607 17.07518 111.3526 19.90658 110.824799 25.538179 Z M 85.212204 11.745178 L 85.212204 19.34758 C 86.434196 17.766777 87.931801 17.293579 89.486603 17.293579 C 93.371002 17.293579 95.092201 19.929979 95.092201 23.954781 L 95.092201 31.169781 L 91.706993 31.169781 L 91.706993 23.983381 C 91.706993 21.484781 90.401802 20.43178 88.597397 20.43178 C 86.598 20.43178 85.212204 22.12438 85.212204 24.178381 L 85.212204 31.172379 L 81.826996 31.172379 L 81.826996 11.74778 Z M 76.221397 13.632782 L 76.221397 17.517178 L 79.996605 17.517178 L 79.996605 20.43178 L 76.195404 20.43178 L 76.195404 26.341581 C 76.195404 27.64678 76.918205 28.283781 77.971199 28.283781 C 78.499001 28.283781 79.110001 28.117378 79.6092 27.867779 L 80.553001 30.75378 C 79.583206 31.14118 78.777199 31.307579 77.750198 31.33618 C 74.781006 31.447979 72.838806 29.752779 72.838806 26.341581 L 72.838806 20.43178 L 70.285599 20.43178 L 70.285599 17.517178 L 72.838806 17.517178 L 72.838806 13.994179 Z M 66.869202 22.73538 C 66.648201 20.959579 65.259804 20.070379 63.317596 20.070379 C 61.487202 20.070379 59.987 20.959579 59.487801 22.73538 Z M 59.433201 25.538179 C 59.654202 27.23078 61.125801 28.45278 63.512596 28.45278 C 64.760597 28.45278 66.398598 27.97958 67.176003 27.17618 L 69.339203 29.313381 C 67.896202 30.810978 65.537994 31.533781 63.455399 31.533781 C 58.736401 31.533781 55.933601 28.619179 55.933601 24.23558 C 55.933601 20.072981 58.764999 17.07518 63.203201 17.07518 C 67.781799 17.07518 70.639198 19.90658 70.113998 25.538179 Z"/>
    </g>
    <path id="ERC20" fill="#26a17b" fill-rule="evenodd" stroke="none" d="M 120.865997 45.181999 C 123.219002 45.181999 124.570999 43.257999 124.570999 40.450001 C 124.570999 37.641998 123.219002 35.718002 120.865997 35.718002 C 118.513 35.718002 117.161003 37.641998 117.161003 40.450001 C 117.161003 43.257999 118.513 45.181999 120.865997 45.181999 Z M 120.865997 43.153999 C 119.774002 43.153999 119.240997 42.205002 119.240997 40.450001 C 119.240997 38.695 119.774002 37.746002 120.865997 37.746002 C 121.958 37.746002 122.490997 38.695 122.490997 40.450001 C 122.490997 42.205002 121.958 43.153999 120.865997 43.153999 Z M 110.258003 45 L 116.445999 45 L 116.445999 42.998001 L 113.390999 42.998001 L 114.899002 41.477001 C 115.731003 40.645 116.316002 39.709 116.316002 38.617001 C 116.316002 36.784 114.860001 35.718002 113.235001 35.718002 C 111.973999 35.718002 110.751999 36.355 110.167 37.707001 L 111.921997 38.734001 C 112.168999 38.161999 112.624001 37.746002 113.261002 37.746002 C 113.872002 37.746002 114.236 38.136002 114.236 38.708 C 114.236 39.241001 113.846001 39.774002 113.313004 40.32 L 110.258003 43.492001 Z M 105.876999 45.181999 C 107.541 45.181999 108.997002 44.362999 109.777 43.076 L 107.983002 42.035999 C 107.593002 42.737999 106.800003 43.153999 105.876999 43.153999 C 104.264999 43.153999 103.224998 42.075001 103.224998 40.450001 C 103.224998 38.825001 104.264999 37.746002 105.876999 37.746002 C 106.800003 37.746002 107.580002 38.161999 107.983002 38.863998 L 109.777 37.824001 C 108.984001 36.536999 107.528 35.718002 105.876999 35.718002 C 103.134003 35.718002 101.144997 37.771999 101.144997 40.450001 C 101.144997 43.127998 103.134003 45.181999 105.876999 45.181999 Z M 98.454002 45 L 100.690002 45 L 98.752998 41.659 C 99.753998 41.152 100.43 40.138 100.43 39.02 C 100.43 37.291 99.039001 35.900002 97.309998 35.900002 L 93.669998 35.900002 L 93.669998 45 L 95.75 45 L 95.75 42.010002 L 96.737999 42.010002 Z M 95.75 37.849998 L 97.309998 37.849998 C 97.882004 37.849998 98.349998 38.357002 98.349998 39.02 C 98.349998 39.682999 97.882004 40.189999 97.309998 40.189999 L 95.75 40.189999 Z M 88.860001 42.998001 L 88.860001 41.386002 L 92.110001 41.386002 L 92.110001 39.41 L 88.860001 39.41 L 88.860001 37.902 L 92.434998 37.902 L 92.434998 35.900002 L 86.779999 35.900002 L 86.779999 45 L 92.5 45 L 92.5 42.998001 Z"/>
    <text id="text1" xml:space="preserve" x="141" y="43" font-family="Gilroy" font-size="1" font-weight="700" fill="#003b70">Текст</text>
</svg>
