<?xml version="1.0" encoding="UTF-8"?>
<!-- Generated by Pixelmator Pro 3.2.3 -->
<svg width="130" height="50" viewBox="0 0 130 50" xmlns="http://www.w3.org/2000/svg" xmlns:xlink="http://www.w3.org/1999/xlink">
    <g id="eppUOmNgP2gRY2Fg7fJU">
        <path id="path1" fill="#26a17b" stroke="none" d="M 5.358 25 C 5.358 16.068451 12.598452 8.827999 21.530001 8.827999 C 30.461548 8.827999 37.702 16.068451 37.702 25 C 37.702 33.931549 30.461548 41.172001 21.530001 41.172001 C 12.598452 41.172001 5.358 33.931549 5.358 25 Z"/>
    </g>
    <g id="FOA762bLirgwLIP2iJyre">
        <path id="path2" fill="#ffffff" stroke="none" d="M 23.252899 26.49678 L 23.252899 26.494181 C 23.1411 26.50198 22.5639 26.53578 21.279501 26.53578 C 20.252501 26.53578 19.532301 26.507179 19.2775 26.494181 L 19.2775 26.49678 C 15.328099 26.322578 12.3823 25.636179 12.3823 24.811979 C 12.3823 23.990379 15.3307 23.30138 19.2775 23.127178 L 19.2775 25.812979 C 19.534901 25.831179 20.2759 25.87538 21.297701 25.87538 C 22.5249 25.87538 23.1385 25.82338 23.252899 25.812979 L 23.252899 23.12978 C 27.1945 23.30658 30.1325 23.992979 30.1325 24.814581 C 30.1325 25.636179 27.1919 26.322578 23.252899 26.49938 M 23.252899 22.85158 L 23.252899 20.449181 L 28.7519 20.449181 L 28.7519 16.785782 L 13.7811 16.785782 L 13.7811 20.449181 L 19.2801 20.449181 L 19.2801 22.85158 C 14.8107 23.05698 11.4515 23.940981 11.4515 25.001781 C 11.4515 26.06258 14.8133 26.946579 19.2801 27.154581 L 19.2801 34.855782 L 23.255501 34.855782 L 23.255501 27.154581 C 27.717098 26.949181 31.0711 26.06518 31.0711 25.004379 C 31.0711 23.94618 27.717098 23.05958 23.255501 22.854179"/>
    </g>
    <g id="VzlqMGNWI0TYyCgonRU29">
        <path id="path3" fill="#5b5a5d" stroke="none" d="M 50.7882 13.78878 L 50.7882 17.67318 L 54.5634 17.67318 L 54.5634 20.58778 L 50.762203 20.58778 L 50.762203 26.49758 C 50.762203 27.80278 51.482399 28.439781 52.537998 28.439781 C 53.065804 28.439781 53.6768 28.27338 54.175999 28.023781 L 55.119801 30.909781 C 54.150002 31.29718 53.343998 31.463579 52.317001 31.49218 C 49.347801 31.603979 47.405602 29.911379 47.405602 26.49758 L 47.405602 20.58778 L 44.852398 20.58778 L 44.852398 17.67318 L 47.405602 17.67318 L 47.405602 14.150177 Z M 115.874001 17.49118 L 116.123596 19.071981 C 117.179199 17.379379 118.593597 17.12978 119.981995 17.12978 C 121.3964 17.12978 122.756203 17.683578 123.505005 18.432379 L 121.978806 21.37298 C 121.284599 20.790581 120.647606 20.48378 119.537399 20.48378 C 117.761604 20.48378 116.123596 21.42758 116.123596 23.952179 L 116.123596 31.167179 L 112.738403 31.167179 L 112.738403 17.485981 Z M 107.5774 22.73538 C 107.3564 20.959579 105.967995 20.070379 104.025795 20.070379 C 102.195404 20.070379 100.695198 20.959579 100.195999 22.73538 Z M 100.141396 25.538179 C 100.362396 27.23078 101.834 28.45278 104.220795 28.45278 C 105.468803 28.45278 107.106796 27.97958 107.884193 27.17618 L 110.047401 29.313381 C 108.604401 30.810978 106.246201 31.533781 104.163597 31.533781 C 99.447205 31.533781 96.6418 28.619179 96.6418 24.23558 C 96.6418 20.072981 99.473206 17.07518 103.914001 17.07518 C 108.492607 17.07518 111.3526 19.90658 110.824799 25.538179 Z M 85.212204 11.745178 L 85.212204 19.34758 C 86.434196 17.766777 87.931801 17.293579 89.486603 17.293579 C 93.371002 17.293579 95.092201 19.929979 95.092201 23.954781 L 95.092201 31.169781 L 91.706993 31.169781 L 91.706993 23.983381 C 91.706993 21.484781 90.401802 20.43178 88.597397 20.43178 C 86.598 20.43178 85.212204 22.12438 85.212204 24.178381 L 85.212204 31.172379 L 81.826996 31.172379 L 81.826996 11.74778 Z M 76.221397 13.632782 L 76.221397 17.517178 L 79.996605 17.517178 L 79.996605 20.43178 L 76.195404 20.43178 L 76.195404 26.341581 C 76.195404 27.64678 76.918205 28.283781 77.971199 28.283781 C 78.499001 28.283781 79.110001 28.117378 79.6092 27.867779 L 80.553001 30.75378 C 79.583206 31.14118 78.777199 31.307579 77.750198 31.33618 C 74.781006 31.447979 72.838806 29.752779 72.838806 26.341581 L 72.838806 20.43178 L 70.285599 20.43178 L 70.285599 17.517178 L 72.838806 17.517178 L 72.838806 13.994179 Z M 66.869202 22.73538 C 66.648201 20.959579 65.259804 20.070379 63.317596 20.070379 C 61.487202 20.070379 59.987 20.959579 59.487801 22.73538 Z M 59.433201 25.538179 C 59.654202 27.23078 61.125801 28.45278 63.512596 28.45278 C 64.760597 28.45278 66.398598 27.97958 67.176003 27.17618 L 69.339203 29.313381 C 67.896202 30.810978 65.537994 31.533781 63.455399 31.533781 C 58.736401 31.533781 55.933601 28.619179 55.933601 24.23558 C 55.933601 20.072981 58.764999 17.07518 63.203201 17.07518 C 67.781799 17.07518 70.639198 19.90658 70.113998 25.538179 Z"/>
    </g>
    <path id="TRC20" fill="#26a17b" fill-rule="evenodd" stroke="none" d="M 120.379997 47.209999 C 123.095001 47.209999 124.654999 44.989998 124.654999 41.75 C 124.654999 38.510002 123.095001 36.290001 120.379997 36.290001 C 117.665001 36.290001 116.105003 38.510002 116.105003 41.75 C 116.105003 44.989998 117.665001 47.209999 120.379997 47.209999 Z M 120.379997 44.869999 C 119.120003 44.869999 118.504997 43.775002 118.504997 41.75 C 118.504997 39.724998 119.120003 38.630001 120.379997 38.630001 C 121.639999 38.630001 122.254997 39.724998 122.254997 41.75 C 122.254997 43.775002 121.639999 44.869999 120.379997 44.869999 Z M 108.139999 47 L 115.279999 47 L 115.279999 44.689999 L 111.754997 44.689999 L 113.495003 42.935001 C 114.455002 41.974998 115.129997 40.895 115.129997 39.635002 C 115.129997 37.52 113.449997 36.290001 111.574997 36.290001 C 110.120003 36.290001 108.709999 37.025002 108.035004 38.584999 L 110.059998 39.77 C 110.345001 39.110001 110.870003 38.630001 111.605003 38.630001 C 112.309998 38.630001 112.730003 39.080002 112.730003 39.739998 C 112.730003 40.355 112.279999 40.970001 111.665001 41.599998 L 108.139999 45.260002 Z M 103.084999 47.209999 C 105.004997 47.209999 106.684998 46.264999 107.584999 44.779999 L 105.514999 43.580002 C 105.065002 44.389999 104.150002 44.869999 103.084999 44.869999 C 101.224998 44.869999 100.025002 43.625 100.025002 41.75 C 100.025002 39.875 101.224998 38.630001 103.084999 38.630001 C 104.150002 38.630001 105.050003 39.110001 105.514999 39.919998 L 107.584999 38.720001 C 106.669998 37.235001 104.989998 36.290001 103.084999 36.290001 C 99.919998 36.290001 97.625 38.66 97.625 41.75 C 97.625 44.84 99.919998 47.209999 103.084999 47.209999 Z M 94.519997 47 L 97.099998 47 L 94.864998 43.145 C 96.019997 42.560001 96.800003 41.389999 96.800003 40.099998 C 96.800003 38.105 95.195 36.5 93.199997 36.5 L 89 36.5 L 89 47 L 91.400002 47 L 91.400002 43.549999 L 92.540001 43.549999 Z M 91.400002 38.75 L 93.199997 38.75 C 93.860001 38.75 94.400002 39.334999 94.400002 40.099998 C 94.400002 40.864998 93.860001 41.450001 93.199997 41.450001 L 91.400002 41.450001 Z M 87.949997 36.5 L 80.150002 36.5 L 80.150002 38.810001 L 82.849998 38.810001 L 82.849998 47 L 85.25 47 L 85.25 38.810001 L 87.949997 38.810001 Z"/>
</svg>
