<?xml version="1.0" encoding="UTF-8" standalone="no" ?>
<!DOCTYPE svg PUBLIC "-//W3C//DTD SVG 1.1//EN" "http://www.w3.org/Graphics/SVG/1.1/DTD/svg11.dtd">
<svg xmlns="http://www.w3.org/2000/svg" xmlns:xlink="http://www.w3.org/1999/xlink" version="1.1" width="120" height="60" viewBox="0 0 120 60" xml:space="preserve">
<desc>Created with Fabric.js 4.6.0</desc>
<defs>
</defs>
<g transform="matrix(0.04 0 0 0.04 60 30)" id="sVh0D7i73_O5kSSZ3oPXw"  >
<g style="" vector-effect="non-scaling-stroke"   >
		<g transform="matrix(1 0 0 1 -280.95 61.85)" id="d-zNCgoUp52ZgYJ769CCG"  >
<path style="stroke: none; stroke-width: 1; stroke-dasharray: none; stroke-linecap: butt; stroke-dashoffset: 0; stroke-linejoin: miter; stroke-miterlimit: 4; fill: rgb(38,39,41); fill-rule: nonzero; opacity: 1;" vector-effect="non-scaling-stroke"  transform=" translate(-22.2, -144.95)" d="M 0 289.9 L 0 0 L 44.4 0 L 44.4 289.9 z" stroke-linecap="round" />
</g>
		<g transform="matrix(1 0 0 1 -240.8 -183.7)" id="VVkiW-18GLAKTiH2rUTJ1"  >
<path style="stroke: none; stroke-width: 1; stroke-dasharray: none; stroke-linecap: butt; stroke-dashoffset: 0; stroke-linejoin: miter; stroke-miterlimit: 4; fill: rgb(38,39,41); fill-rule: nonzero; opacity: 1;" vector-effect="non-scaling-stroke"  transform=" translate(-180.95, -22.2)" d="M 0 44.4 L 0 0 L 361.9 0 L 361.9 44.4 z" stroke-linecap="round" />
</g>
		<g transform="matrix(1 0 0 1 -200.75 61.85)" id="nk4YZPRqNNULtMH3lnw4B"  >
<path style="stroke: none; stroke-width: 1; stroke-dasharray: none; stroke-linecap: butt; stroke-dashoffset: 0; stroke-linejoin: miter; stroke-miterlimit: 4; fill: rgb(38,39,41); fill-rule: nonzero; opacity: 1;" vector-effect="non-scaling-stroke"  transform=" translate(-22.2, -144.95)" d="M 0 289.9 L 0 0 L 44.4 0 L 44.4 289.9 z" stroke-linecap="round" />
</g>
		<g transform="matrix(1 0 0 1 1070.45 94.9)" id="bUlVXy5IyeaUNKFhvPlbz"  >
<path style="stroke: none; stroke-width: 1; stroke-dasharray: none; stroke-linecap: butt; stroke-dashoffset: 0; stroke-linejoin: miter; stroke-miterlimit: 4; fill: rgb(38,39,41); fill-rule: nonzero; opacity: 1;" vector-effect="non-scaling-stroke"  transform=" translate(-2572.2, -675.4)" d="M 2549.8 787.6 L 2594.6000000000004 787.6 L 2594.6000000000004 613 L 2549.8 563.2 z" stroke-linecap="round" />
</g>
		<g transform="matrix(1 0 0 1 1147.95 0.6)" id="lWkLNMhnE0t6ReK4SMold"  >
<path style="stroke: none; stroke-width: 1; stroke-dasharray: none; stroke-linecap: butt; stroke-dashoffset: 0; stroke-linejoin: miter; stroke-miterlimit: 4; fill: rgb(38,39,41); fill-rule: nonzero; opacity: 1;" vector-effect="non-scaling-stroke"  transform=" translate(-2649.7, -581.1)" d="M 2785.7 374.6 L 2785.7 698.3 L 2468.7999999999997 346.09999999999997 L 2468.7999999999997 787.5999999999999 L 2513.4999999999995 787.5999999999999 L 2513.4999999999995 463.7999999999999 L 2830.5999999999995 816.0999999999999 L 2830.5999999999995 374.5999999999999 z" stroke-linecap="round" />
</g>
		<g transform="matrix(1 0 0 1 676.95 0.4)" id="nUrj2nTSaX4cYn-1CCacx"  >
<path style="stroke: none; stroke-width: 1; stroke-dasharray: none; stroke-linecap: butt; stroke-dashoffset: 0; stroke-linejoin: miter; stroke-miterlimit: 4; fill: rgb(38,39,41); fill-rule: nonzero; opacity: 1;" vector-effect="non-scaling-stroke"  transform=" translate(-2178.7, -580.9)" d="M 2178.7 374.4 C 2064.7999999999997 374.4 1972.1999999999998 467 1972.1999999999998 580.9 C 1972.1999999999998 694.8 2064.7999999999997 787.4 2178.7 787.4 C 2292.6 787.4 2385.2 694.8 2385.2 580.9 C 2385.2 467.1 2292.6 374.4 2178.7 374.4 z M 2178.7 742.9 C 2089.3999999999996 742.9 2016.6999999999998 670.3 2016.6999999999998 580.9 C 2016.6999999999998 491.5 2089.2999999999997 418.9 2178.7 418.9 C 2268 418.9 2340.7 491.5 2340.7 580.9 C 2340.7 670.2 2268 742.9 2178.7 742.9 z" stroke-linecap="round" />
</g>
		<g transform="matrix(1 0 0 1 676.95 0.4)" id="gP-GK2VaTIxjy6rQ0tIXH"  >
<path style="stroke: none; stroke-width: 1; stroke-dasharray: none; stroke-linecap: butt; stroke-dashoffset: 0; stroke-linejoin: miter; stroke-miterlimit: 4; fill: rgb(38,39,41); fill-rule: nonzero; opacity: 1;" vector-effect="non-scaling-stroke"  transform=" translate(-2178.7, -580.9)" d="M 2178.7 551.2 C 2162.2999999999997 551.2 2149 564.5 2149 580.9000000000001 C 2149 597.3000000000002 2162.3 610.6000000000001 2178.7 610.6000000000001 C 2195.0999999999995 610.6000000000001 2208.3999999999996 597.3000000000002 2208.3999999999996 580.9000000000001 C 2208.3999999999996 564.5 2195.1 551.2 2178.7 551.2 z" stroke-linecap="round" />
</g>
		<g transform="matrix(1 0 0 1 212.6 0.7)" id="zLid_HE1S_iMkHsNGB2oa"  >
<path style="stroke: none; stroke-width: 1; stroke-dasharray: none; stroke-linecap: butt; stroke-dashoffset: 0; stroke-linejoin: miter; stroke-miterlimit: 4; fill: rgb(38,39,41); fill-rule: nonzero; opacity: 1;" vector-effect="non-scaling-stroke"  transform=" translate(-1714.35, -581.2)" d="M 1894.5 501.3 C 1894.5 431.5 1838.1 374.70000000000005 1768.8 374.70000000000005 L 1532.6 374.70000000000005 L 1532.6 787.7 L 1576.6999999999998 787.7 L 1576.6999999999998 419.5 L 1768.7999999999997 419.5 C 1813.2999999999997 419.5 1849.4999999999998 456.2 1849.4999999999998 501.3 C 1849.4999999999998 546.2 1813.7999999999997 582.7 1769.6999999999998 583.2 L 1612.9999999999998 583.1 L 1612.9999999999998 787.7 L 1657.0999999999997 787.7 L 1657.0999999999997 627.9 L 1760.3999999999996 627.9 L 1844.7999999999997 787.5999999999999 L 1896.0999999999997 787.5999999999999 L 1807.9999999999998 621.5999999999999 C 1858.9 604.7 1894.5 555.5 1894.5 501.3 z" stroke-linecap="round" />
</g>
		<g transform="matrix(1 0 0 1 -949.9 0)" id="eFCRLLAo4QCzQsSGbTLYC"  >
<path style="stroke: none; stroke-width: 1; stroke-dasharray: none; stroke-linecap: butt; stroke-dashoffset: 0; stroke-linejoin: miter; stroke-miterlimit: 4; fill: rgb(235,0,41); fill-rule: nonzero; opacity: 1;" vector-effect="non-scaling-stroke"  transform=" translate(-551.85, -580.5)" d="M 774.7 292.8 L 172.9 182.1 L 489.6 978.9 L 930.8 441.29999999999995 L 774.7 292.8 z M 765.1 341.6 L 857.2 429.1 L 605.4000000000001 474.70000000000005 L 765.1 341.6 z M 550.7 465.6 L 285.3 245.5 L 719 325.3 L 550.7 465.6 z M 531.7 504.6 L 488.50000000000006 862.3 L 255.2 275.1 L 531.7 504.6 z M 571.7 523.5 L 850.5 473 L 530.8 862.6 L 571.7 523.5 z" stroke-linecap="round" />
</g>
</g>
</g>
</svg>